<mxfile host="Electron" agent="Mozilla/5.0 (Windows NT 10.0; Win64; x64) AppleWebKit/537.36 (KHTML, like Gecko) draw.io/24.7.17 Chrome/128.0.6613.36 Electron/32.0.1 Safari/537.36" version="24.7.17">
  <diagram name="Page-1" id="bCtMYVrSszdIrnJSBN5H">
    <mxGraphModel dx="1434" dy="836" grid="1" gridSize="10" guides="1" tooltips="1" connect="1" arrows="1" fold="1" page="1" pageScale="1" pageWidth="850" pageHeight="1100" math="1" shadow="0">
      <root>
        <mxCell id="0" />
        <mxCell id="1" parent="0" />
        <mxCell id="Maqsi7S072M0OxjqHqR--10" value="" style="edgeStyle=orthogonalEdgeStyle;rounded=0;orthogonalLoop=1;jettySize=auto;html=1;" edge="1" parent="1" source="Maqsi7S072M0OxjqHqR--1" target="Maqsi7S072M0OxjqHqR--2">
          <mxGeometry relative="1" as="geometry" />
        </mxCell>
        <mxCell id="Maqsi7S072M0OxjqHqR--1" value="Estimation&lt;div&gt;Processs&lt;/div&gt;" style="rounded=0;whiteSpace=wrap;html=1;" vertex="1" parent="1">
          <mxGeometry x="140" y="360" width="100" height="50" as="geometry" />
        </mxCell>
        <mxCell id="Maqsi7S072M0OxjqHqR--9" value="" style="edgeStyle=orthogonalEdgeStyle;rounded=0;orthogonalLoop=1;jettySize=auto;html=1;" edge="1" parent="1" source="Maqsi7S072M0OxjqHqR--2" target="Maqsi7S072M0OxjqHqR--3">
          <mxGeometry relative="1" as="geometry" />
        </mxCell>
        <mxCell id="Maqsi7S072M0OxjqHqR--2" value="Distance&lt;div&gt;Measure&lt;/div&gt;" style="rounded=0;whiteSpace=wrap;html=1;" vertex="1" parent="1">
          <mxGeometry x="320" y="360" width="100" height="50" as="geometry" />
        </mxCell>
        <mxCell id="Maqsi7S072M0OxjqHqR--11" style="edgeStyle=orthogonalEdgeStyle;rounded=0;orthogonalLoop=1;jettySize=auto;html=1;exitX=1;exitY=0.5;exitDx=0;exitDy=0;" edge="1" parent="1" source="Maqsi7S072M0OxjqHqR--3">
          <mxGeometry relative="1" as="geometry">
            <mxPoint x="720" y="385" as="targetPoint" />
          </mxGeometry>
        </mxCell>
        <mxCell id="Maqsi7S072M0OxjqHqR--3" value="Stopping&lt;div&gt;Rule&lt;/div&gt;" style="rounded=0;whiteSpace=wrap;html=1;" vertex="1" parent="1">
          <mxGeometry x="490" y="360" width="100" height="50" as="geometry" />
        </mxCell>
        <mxCell id="Maqsi7S072M0OxjqHqR--4" value="" style="endArrow=none;html=1;rounded=0;entryX=0;entryY=1;entryDx=0;entryDy=0;exitX=0;exitY=0;exitDx=0;exitDy=0;" edge="1" parent="1" source="Maqsi7S072M0OxjqHqR--5" target="Maqsi7S072M0OxjqHqR--3">
          <mxGeometry width="50" height="50" relative="1" as="geometry">
            <mxPoint x="440" y="510" as="sourcePoint" />
            <mxPoint x="480" y="420" as="targetPoint" />
          </mxGeometry>
        </mxCell>
        <mxCell id="Maqsi7S072M0OxjqHqR--8" value="" style="edgeStyle=orthogonalEdgeStyle;rounded=0;orthogonalLoop=1;jettySize=auto;html=1;" edge="1" parent="1" source="Maqsi7S072M0OxjqHqR--5" target="Maqsi7S072M0OxjqHqR--6">
          <mxGeometry relative="1" as="geometry" />
        </mxCell>
        <mxCell id="Maqsi7S072M0OxjqHqR--5" value="Averaging" style="rounded=0;whiteSpace=wrap;html=1;" vertex="1" parent="1">
          <mxGeometry x="415" y="470" width="100" height="50" as="geometry" />
        </mxCell>
        <mxCell id="Maqsi7S072M0OxjqHqR--14" style="edgeStyle=orthogonalEdgeStyle;rounded=0;orthogonalLoop=1;jettySize=auto;html=1;exitX=1;exitY=0.5;exitDx=0;exitDy=0;" edge="1" parent="1" source="Maqsi7S072M0OxjqHqR--6">
          <mxGeometry relative="1" as="geometry">
            <mxPoint x="720" y="495" as="targetPoint" />
          </mxGeometry>
        </mxCell>
        <mxCell id="Maqsi7S072M0OxjqHqR--6" value="Thresholding" style="rounded=0;whiteSpace=wrap;html=1;" vertex="1" parent="1">
          <mxGeometry x="565" y="470" width="100" height="50" as="geometry" />
        </mxCell>
        <mxCell id="Maqsi7S072M0OxjqHqR--7" value="" style="endArrow=none;html=1;rounded=0;entryX=1;entryY=1;entryDx=0;entryDy=0;exitX=1;exitY=0;exitDx=0;exitDy=0;" edge="1" parent="1" source="Maqsi7S072M0OxjqHqR--6" target="Maqsi7S072M0OxjqHqR--3">
          <mxGeometry width="50" height="50" relative="1" as="geometry">
            <mxPoint x="425" y="520" as="sourcePoint" />
            <mxPoint x="500" y="420" as="targetPoint" />
          </mxGeometry>
        </mxCell>
        <mxCell id="Maqsi7S072M0OxjqHqR--12" style="edgeStyle=orthogonalEdgeStyle;rounded=0;orthogonalLoop=1;jettySize=auto;html=1;entryX=0;entryY=0.5;entryDx=0;entryDy=0;" edge="1" parent="1" target="Maqsi7S072M0OxjqHqR--1">
          <mxGeometry relative="1" as="geometry">
            <mxPoint x="680" y="395" as="targetPoint" />
            <mxPoint x="50" y="385" as="sourcePoint" />
          </mxGeometry>
        </mxCell>
        <mxCell id="Maqsi7S072M0OxjqHqR--13" style="edgeStyle=orthogonalEdgeStyle;rounded=0;orthogonalLoop=1;jettySize=auto;html=1;entryX=0;entryY=0.5;entryDx=0;entryDy=0;" edge="1" parent="1" target="Maqsi7S072M0OxjqHqR--5">
          <mxGeometry relative="1" as="geometry">
            <mxPoint x="150" y="395" as="targetPoint" />
            <mxPoint x="330" y="495" as="sourcePoint" />
          </mxGeometry>
        </mxCell>
        <mxCell id="Maqsi7S072M0OxjqHqR--16" value="Text" style="text;html=1;align=center;verticalAlign=middle;whiteSpace=wrap;rounded=0;" vertex="1" parent="1">
          <mxGeometry x="500" y="410" width="60" height="30" as="geometry" />
        </mxCell>
        <mxCell id="Maqsi7S072M0OxjqHqR--18" value="&lt;span style=&quot;background-color: initial;&quot;&gt;$$y_t, u_t$$&lt;/span&gt;" style="text;html=1;align=center;verticalAlign=middle;resizable=0;points=[];autosize=1;strokeColor=none;fillColor=none;rotation=0;" vertex="1" parent="1">
          <mxGeometry x="45" y="360" width="90" height="30" as="geometry" />
        </mxCell>
        <mxCell id="Maqsi7S072M0OxjqHqR--19" value="$$\hat{\theta}_t, \varepsilon_t$$" style="text;html=1;align=center;verticalAlign=middle;resizable=0;points=[];autosize=1;strokeColor=none;fillColor=none;rotation=0;" vertex="1" parent="1">
          <mxGeometry x="180" y="360" width="190" height="30" as="geometry" />
        </mxCell>
        <mxCell id="Maqsi7S072M0OxjqHqR--22" value="$$s_t$$" style="text;html=1;align=center;verticalAlign=middle;resizable=0;points=[];autosize=1;strokeColor=none;fillColor=none;" vertex="1" parent="1">
          <mxGeometry x="415" y="358" width="70" height="30" as="geometry" />
        </mxCell>
        <mxCell id="Maqsi7S072M0OxjqHqR--23" value="Alarm" style="text;html=1;align=center;verticalAlign=middle;resizable=0;points=[];autosize=1;strokeColor=none;fillColor=none;" vertex="1" parent="1">
          <mxGeometry x="630" y="388" width="50" height="30" as="geometry" />
        </mxCell>
        <mxCell id="Maqsi7S072M0OxjqHqR--25" value="$$\hat{k}_a, t_a$$" style="text;html=1;align=center;verticalAlign=middle;resizable=0;points=[];autosize=1;strokeColor=none;fillColor=none;" vertex="1" parent="1">
          <mxGeometry x="595" y="360" width="120" height="30" as="geometry" />
        </mxCell>
        <mxCell id="Maqsi7S072M0OxjqHqR--26" value="$$s_t$$" style="text;html=1;align=center;verticalAlign=middle;resizable=0;points=[];autosize=1;strokeColor=none;fillColor=none;" vertex="1" parent="1">
          <mxGeometry x="335" y="470" width="70" height="30" as="geometry" />
        </mxCell>
        <mxCell id="Maqsi7S072M0OxjqHqR--27" value="$$g_t$$" style="text;html=1;align=center;verticalAlign=middle;resizable=0;points=[];autosize=1;strokeColor=none;fillColor=none;" vertex="1" parent="1">
          <mxGeometry x="505" y="470" width="70" height="30" as="geometry" />
        </mxCell>
        <mxCell id="Maqsi7S072M0OxjqHqR--29" value="Alarm" style="text;html=1;align=center;verticalAlign=middle;resizable=0;points=[];autosize=1;strokeColor=none;fillColor=none;" vertex="1" parent="1">
          <mxGeometry x="665" y="498" width="50" height="30" as="geometry" />
        </mxCell>
        <mxCell id="Maqsi7S072M0OxjqHqR--30" value="$$\hat{k}_a, t_a$$" style="text;html=1;align=center;verticalAlign=middle;resizable=0;points=[];autosize=1;strokeColor=none;fillColor=none;" vertex="1" parent="1">
          <mxGeometry x="630" y="470" width="120" height="30" as="geometry" />
        </mxCell>
        <mxCell id="Maqsi7S072M0OxjqHqR--31" value="Data" style="text;html=1;align=center;verticalAlign=middle;resizable=0;points=[];autosize=1;strokeColor=none;fillColor=none;" vertex="1" parent="1">
          <mxGeometry x="65" y="388" width="50" height="30" as="geometry" />
        </mxCell>
      </root>
    </mxGraphModel>
  </diagram>
</mxfile>
